<svg xmlns="http://www.w3.org/2000/svg" viewBox="0 0 128 128" shape-rendering="geometricPrecision">
  <defs>
    <linearGradient id="solG" x1="10%" y1="10%" x2="90%" y2="90%">
      <stop offset="0%" stop-color="#00FFA3"/>
      <stop offset="50%" stop-color="#3CB4E7"/>
      <stop offset="100%" stop-color="#9945FF"/>
    </linearGradient>
  </defs>
  <circle cx="64" cy="64" r="64" fill="#000"/>
  <g transform="translate(28 38)">
    <path d="M11.6 36.9a2.3 2.3 0 0 1 1.6-.7h57.2c1 0 1.5 1.2.8 1.9l-9.5 9.5a2.3 2.3 0 0 1-1.6.7H2.9c-1 0-1.5-1.2-.8-1.9l9.5-9.5z" fill="url(#solG)"/>
    <path d="M11.6 1.3A2.3 2.3 0 0 1 13.2.6h57.2c1 0 1.5 1.2.8 1.9l-9.5 9.5a2.3 2.3 0 0 1-1.6.7H2.9c-1 0-1.5-1.2-.8-1.9L11.6 1.3z" fill="url(#solG)"/>
    <path d="M60.4 19a2.3 2.3 0 0 0-1.6-.7H1.6c-1 0-1.5 1.2-.8 1.9l9.5 9.5c.4.4 1 .7 1.6.7h57.2c1 0 1.5-1.2.8-1.9L60.4 19z" fill="url(#solG)"/>
  </g>
</svg>
