<svg xmlns="http://www.w3.org/2000/svg" viewBox="0 0 128 128" shape-rendering="geometricPrecision">
  <defs>
    <linearGradient id="solanaBars" x1="20" y1="30" x2="108" y2="98" gradientUnits="userSpaceOnUse">
      <stop offset="0" stop-color="#9945FF"/>
      <stop offset="0.48" stop-color="#19FB9B"/>
      <stop offset="1" stop-color="#00C2FF"/>
    </linearGradient>
    <filter id="coinShadow" x="-12" y="-10" width="152" height="152" color-interpolation-filters="sRGB">
      <feDropShadow dx="0" dy="5" stdDeviation="5" flood-color="#02140A" flood-opacity="0.22"/>
    </filter>
  </defs>
  <circle cx="64" cy="64" r="60" fill="#FFFFFF" filter="url(#coinShadow)"/>
  <circle cx="64" cy="64" r="56" fill="#F7FFF9" stroke="#CFFFE5" stroke-width="4"/>
  <g fill="url(#solanaBars)">
    <path d="M35.7 82.8a3.1 3.1 0 0 1 2.2-.9h60.8c1.9 0 2.9 2.3 1.6 3.6l-11.9 11.9a3.1 3.1 0 0 1-2.2.9H25.4c-1.9 0-2.9-2.3-1.6-3.6l11.9-11.9Z"/>
    <path d="M35.7 30.6a3.1 3.1 0 0 1 2.2-.9h60.8c1.9 0 2.9 2.3 1.6 3.6L88.4 45.2a3.1 3.1 0 0 1-2.2.9H25.4c-1.9 0-2.9-2.3-1.6-3.6l11.9-11.9Z"/>
    <path d="M88.4 56.7a3.1 3.1 0 0 0-2.2-.9H25.4c-1.9 0-2.9 2.3-1.6 3.6l11.9 11.9a3.1 3.1 0 0 0 2.2.9h60.8c1.9 0 2.9-2.3 1.6-3.6L88.4 56.7Z"/>
  </g>
</svg>
